<svg id="Capa_1" enable-background="new 0 0 512 512" height="512" viewBox="0 0 512 512" width="512" xmlns="http://www.w3.org/2000/svg"><g><g><g><g><path d="m512 132.218c0-50.027-40.7-90.727-90.727-90.727-30.5 0-56.783 13.698-73.123 37.834-14.329-7.076-29.316-12.53-44.704-16.191-5.371-1.277-10.765 2.041-12.043 7.414s2.041 10.765 7.414 12.043c92.023 21.891 161.419 112.41 161.419 210.553 0 142.03-142.828 157.363-204.236 157.363s-204.236-15.332-204.236-157.362c0-97.973 69.259-188.459 161.101-210.477 5.371-1.288 8.681-6.686 7.393-12.056-1.288-5.371-6.69-8.676-12.056-7.393-15.264 3.659-30.133 9.084-44.353 16.107-16.341-24.136-42.624-37.834-73.123-37.834-50.026 0-90.726 40.699-90.726 90.726 0 34.447 17.371 63.307 46.841 78.515-9.879 26.476-15.077 54.447-15.077 82.412 0 30.155 6.032 57.258 17.93 80.557 11.251 22.033 27.768 40.754 49.094 55.643 38.571 26.93 92.935 41.164 157.213 41.164s118.642-14.234 157.213-41.164c21.325-14.889 37.843-33.61 49.094-55.643 11.897-23.299 17.93-50.402 17.93-80.557 0-27.968-5.198-55.938-15.076-82.412 29.467-15.209 46.838-44.068 46.838-78.515zm-429.97 14.944c-1.776 2.319-3.509 4.666-5.197 7.041-8.417-4.018-12.833-11.539-12.833-21.985 0-14.737 11.989-26.727 26.727-26.727 9.284 0 15.976 3.284 20.337 10.012-10.476 9.55-20.209 20.139-29.034 31.659zm-62.03-14.944c0-38.999 31.728-70.727 70.727-70.727 23.358 0 42.818 9.719 55.524 27.542-6.791 4.155-13.395 8.689-19.781 13.581-8.092-11.116-20.481-17.124-35.743-17.124-25.765.001-46.727 20.963-46.727 46.728 0 17.25 8.011 31.181 21.868 38.82-4.098 6.892-7.847 13.962-11.237 21.178-21.82-11.938-34.631-33.883-34.631-59.998zm380.936-16.716c4.362-6.727 11.054-10.011 20.337-10.011 14.737 0 26.727 11.99 26.727 26.727 0 10.446-4.416 17.967-12.833 21.984-1.723-2.423-3.491-4.818-5.306-7.183-8.796-11.465-18.493-22.006-28.925-31.517zm56.434 76.714c-3.39-7.216-7.139-14.286-11.238-21.177 13.858-7.64 21.868-21.571 21.868-38.821 0-25.765-20.962-46.727-46.727-46.727-15.261 0-27.651 6.007-35.743 17.123-6.386-4.893-12.99-9.426-19.781-13.581 12.706-17.822 32.165-27.542 55.524-27.542 38.999 0 70.727 31.728 70.727 70.727 0 26.115-12.81 48.059-34.63 59.998z"/><path d="m255.456 246.699c-.047 0-.094.001-.141.001-.029 0-.059 0-.088.001-62.294.423-112.82 43.93-112.82 97.349 0 51.161 46.771 86.892 113.736 86.892s113.737-35.732 113.737-86.893c0-53.68-51.022-97.352-113.736-97.352-.022 0-.044 0-.066 0-.028 0-.056 0-.084 0-.18 0-.359.001-.538.002zm36.187 39.048c0 9.01-14.641 19.049-35.649 19.049s-35.648-10.039-35.648-19.049c0-8.938 14.407-18.888 35.145-19.047h.023.124c.139-.001.279-.001.419-.001 20.974.018 35.586 10.046 35.586 19.048zm58.237 58.302c0 24.787-14.212 39.977-26.134 48.355-17.009 11.954-41.018 18.537-67.603 18.537s-50.594-6.583-67.603-18.537c-11.922-8.378-26.134-23.568-26.134-48.355 0-25.517 15.051-48.188 38.211-62.285-.181 1.308-.273 2.636-.273 3.982 0 19.495 19.376 35.229 45.648 38.446v11.828c0 4.539-3.69 8.232-8.228 8.232-4.537 0-8.229-3.693-8.229-8.232 0-5.523-4.477-10-10-10-5.522 0-10 4.477-10 10 0 15.567 12.663 28.232 28.229 28.232 6.942 0 13.306-2.519 18.228-6.692 4.921 4.172 11.286 6.692 18.228 6.692 15.564 0 28.227-12.665 28.227-28.232 0-5.523-4.477-10-10-10-5.522 0-10 4.477-10 10 0 4.539-3.69 8.232-8.227 8.232s-8.229-3.693-8.229-8.232v-11.828c26.273-3.217 45.649-18.951 45.649-38.446 0-1.415-.102-2.81-.302-4.181 23.349 14.083 38.542 36.847 38.542 62.484z"/></g></g><g><g><g><g><path d="m256 77.56c-4.189 0-7.987-2.698-9.407-6.63-1.395-3.863-.199-8.338 2.938-10.992 3.282-2.776 8.094-3.123 11.746-.864 3.493 2.161 5.343 6.416 4.533 10.446-.928 4.616-5.107 8.04-9.81 8.04z"/></g></g></g></g><g><g><g><g><g><path d="m324.904 213.57c11.664-11.664 30.643-11.662 42.309.003 3.905 3.905 3.905 10.237 0 14.142s-10.237 3.905-14.142 0c-3.867-3.867-10.159-3.869-14.024-.003-3.905 3.905-10.237 3.905-14.142 0-3.906-3.905-3.906-10.236-.001-14.142z"/></g></g></g></g><g><g><g><g><path d="m187.318 213.57c3.905 3.905 3.905 10.237 0 14.142s-10.237 3.905-14.142 0c-3.866-3.866-10.157-3.864-14.024.003-3.905 3.905-10.237 3.905-14.142 0s-3.905-10.237 0-14.142c11.665-11.665 30.645-11.666 42.308-.003z"/></g></g></g></g></g></g></g></svg>