<?xml version="1.0" encoding="utf-8"?>
<!-- Generator: Adobe Illustrator 24.3.0, SVG Export Plug-In . SVG Version: 6.00 Build 0)  -->
<svg version="1.1" id="Capa_1" xmlns="http://www.w3.org/2000/svg" xmlns:xlink="http://www.w3.org/1999/xlink" x="0px" y="0px"
	 viewBox="0 0 902.9 902.9" style="enable-background:new 0 0 902.9 902.9;" xml:space="preserve">
<style type="text/css">
	.st0{fill:#0D6EFD;}
</style>
<g>
	<g>
		<path class="st0" d="M671.5,577.8L782,145.2h120.9v-68H729.2l-26,102L0,178.7l74.8,399.1L671.5,577.8L671.5,577.8L671.5,577.8z
			 M685.8,247.2l-67.1,262.6H131.2L81.9,246.8L685.8,247.2z"/>
		<path class="st0" d="M578.4,825.6c60,0,108.7-48.8,108.7-108.7s-48.8-108.7-108.7-108.7H168.7c-60,0-108.7,48.8-108.7,108.7
			s48.8,108.7,108.7,108.7s108.7-48.8,108.7-108.7c0-14.4-2.8-28.2-7.9-40.7h208.1c-5.1,12.6-7.9,26.3-7.9,40.7
			C469.7,776.9,518.5,825.6,578.4,825.6z M209.5,716.9c0,22.5-18.3,40.7-40.7,40.7S128,739.4,128,716.9c0-22.5,18.3-40.7,40.7-40.7
			C191.2,676.2,209.5,694.4,209.5,716.9z M619.2,716.9c0,22.5-18.3,40.7-40.7,40.7s-40.7-18.3-40.7-40.7c0-22.5,18.3-40.7,40.7-40.7
			S619.2,694.4,619.2,716.9z"/>
	</g>
</g>
</svg>
