<?xml version="1.0" encoding="utf-8"?>
<!-- Generator: Adobe Illustrator 24.3.0, SVG Export Plug-In . SVG Version: 6.00 Build 0)  -->
<svg version="1.1" id="Capa_1" xmlns="http://www.w3.org/2000/svg" xmlns:xlink="http://www.w3.org/1999/xlink" x="0px" y="0px"
	 viewBox="0 0 2930.9 902.9" style="enable-background:new 0 0 2930.9 902.9;" xml:space="preserve">
<style type="text/css">
	.st0{fill:#0D6EFD;}
</style>
<g>
	<g>
		<path class="st0" d="M671.5,577.8L782,145.2h120.9v-68H729.2l-26,102L0,178.7l74.8,399.1H671.5L671.5,577.8L671.5,577.8z
			 M685.8,247.2l-67.1,262.6H131.2l-49.3-263L685.8,247.2z"/>
		<path class="st0" d="M578.4,825.6c60,0,108.7-48.8,108.7-108.7s-48.8-108.7-108.7-108.7H168.7C108.7,608.2,60,657,60,716.9
			s48.8,108.7,108.7,108.7s108.7-48.8,108.7-108.7c0-14.4-2.8-28.2-7.9-40.7h208.1c-5.1,12.6-7.9,26.3-7.9,40.7
			C469.7,776.9,518.5,825.6,578.4,825.6z M209.5,716.9c0,22.5-18.3,40.7-40.7,40.7S128,739.4,128,716.9s18.3-40.7,40.7-40.7
			C191.2,676.2,209.5,694.4,209.5,716.9z M619.2,716.9c0,22.5-18.3,40.7-40.7,40.7s-40.7-18.3-40.7-40.7c0-22.5,18.3-40.7,40.7-40.7
			S619.2,694.4,619.2,716.9z"/>
	</g>
</g>
<g>
	<path class="st0" d="M1056.6,77.2h172.7V116h-131.7v77.2H1210v36.4h-112.4v79.4h131.7v38.8h-172.7V77.2z"/>
	<path class="st0" d="M1406,316.5c-8.4,9.6-18.3,17.5-29.7,23.6c-11.4,6.3-24.5,9.6-39.5,9.8c-22.8,0-42.7-7.7-59.9-23.2
		c-17.8-15.5-27-40.5-27.5-75.1c0.5-35,9.6-60.3,27.5-76c17.2-15.5,37.2-23.1,59.9-22.8c15,0.2,28.1,3.3,39.5,9.3
		c11.4,6.1,21.3,14.2,29.7,24.3l-28.6,25.4c-9.8-13-22.8-19.7-39.1-20.2c-32.9-0.5-49.6,19.5-50.1,60.1
		c0.5,40.3,17.2,60.2,50.1,59.5c16.3-0.2,29.4-6.9,39.1-20L1406,316.5z"/>
	<path class="st0" d="M1423.4,251.2c0-20.3,1.7-35.9,5-46.7c3.5-10.6,8.8-19.6,16-26.9c5.3-6.4,12.7-12.2,22.3-17.2
		c9.4-4.8,21.5-7.4,36.2-7.6c15.2,0.2,27.5,2.8,36.9,7.6c9.3,5.1,16.4,10.8,21.5,17.2c7.7,7.3,13.1,16.3,16.3,26.9
		c3.1,10.9,4.6,26.5,4.6,46.7c0,20.3-1.5,35.7-4.6,46.4c-3.2,10.6-8.7,19.8-16.3,27.6c-2.5,2.8-5.5,5.6-9.1,8.3
		c-3.2,3.1-7.4,5.7-12.4,8c-9.4,5.3-21.7,8.1-36.9,8.3c-14.7-0.2-26.8-3-36.2-8.3c-9.5-4.8-16.9-10.3-22.3-16.3
		c-7.2-7.8-12.5-17-16-27.6C1425.1,286.9,1423.4,271.5,1423.4,251.2z M1543.5,251.5c0-13.7-0.6-23.7-1.9-30
		c-1.2-6.1-3.8-11.4-7.6-16c-2.8-4.3-7-7.7-12.6-10.2c-5.3-2.6-11.5-3.9-18.5-3.9c-6.6,0-12.6,1.3-18.2,3.9
		c-5.3,2.5-9.6,5.9-13,10.2c-3.3,4.6-5.7,9.9-7.2,16c-1.5,6.3-2.2,16.2-2.2,29.7c0,13.4,0.7,23.1,2.2,29.3
		c1.5,6.3,3.9,11.9,7.2,16.7c3.3,3.7,7.7,7,13,9.8c5.6,2.7,11.6,4.1,18.2,4.1c7,0,13.2-1.4,18.5-4.1c5.6-2.8,9.8-6.1,12.6-9.8
		c3.8-4.8,6.4-10.4,7.6-16.7C1542.8,274.3,1543.5,264.7,1543.5,251.5z"/>
	<path class="st0" d="M1625.1,155.1h38.8v20.4h0.7c12.7-15.2,29.5-22.8,50.3-22.8c13.4,0.2,24.1,2.5,32.3,6.9
		c8,4.8,15.4,10.9,22.1,18.4c15.1-17.1,35.3-25.5,60.6-25.2c16,0,30.5,5.6,43.8,16.9c13.1,11.4,19.9,28.1,20.4,50.1v128h-38.8V233
		c0-13.5-3.5-23.7-10.6-30.8c-7-7.2-16.1-10.8-27.3-10.8s-20.3,3.6-27.5,10.8c-7.3,7-10.9,17.3-10.9,30.8v114.6h-38.8V233
		c0-13.5-3.5-23.7-10.6-30.8c-7.2-7.2-16.3-10.8-27.5-10.8s-20.2,3.6-27.3,10.8c-7.4,7-11.1,17.3-11.1,30.8v114.6h-38.8V155.1z"/>
	<path class="st0" d="M1948.7,155.1h38.8v20.4h0.7c12.7-15.2,29.5-22.8,50.3-22.8c13.4,0.2,24.1,2.5,32.3,6.9
		c8,4.8,15.4,10.9,22.1,18.4c15.1-17.1,35.3-25.5,60.6-25.2c16,0,30.5,5.6,43.8,16.9c13.1,11.4,19.9,28.1,20.4,50.1v128h-38.8V233
		c0-13.5-3.5-23.7-10.6-30.8c-7-7.2-16.1-10.8-27.3-10.8c-11.1,0-20.3,3.6-27.4,10.8c-7.3,7-10.9,17.3-10.9,30.8v114.6h-38.8V233
		c0-13.5-3.5-23.7-10.6-30.8c-7.2-7.2-16.3-10.8-27.5-10.8s-20.2,3.6-27.3,10.8c-7.4,7-11.1,17.3-11.1,30.8v114.6h-38.8V155.1z"/>
	<path class="st0" d="M2299.4,266c0,15.5,4.5,27.2,13.4,35.2c8.3,8.2,19.2,12.2,32.6,12.2c15.7,0,29.7-6.2,42.1-18.7l28,23.9
		c-19.7,21-42.8,31.4-69.4,31.2c-10.1,0-20-1.5-29.7-4.5c-4.8-1.6-9.5-3.8-14.1-6.5c-4.8-2.3-9.3-5.3-13.5-8.7
		c-8.2-7.2-14.8-17.2-19.8-30c-5.6-12.4-8.3-28.4-8.3-48.2c0-19,2.4-34.9,7.2-47.5c4.8-12.9,11-23,18.5-30.4
		c7.7-7.5,16.3-13,25.8-16.3c9.4-3.3,18.7-5,27.8-5c22,0.2,40.6,7.5,55.8,21.7c15.5,14.5,23.3,34.4,23.6,59.7V266H2299.4z
		 M2380.7,234.1c-0.5-15-4.5-26.3-12.1-33.9c-7.4-7.3-16.9-10.9-28.6-10.9c-11.6,0-21.1,3.6-28.6,10.9c-7.3,7.7-11.3,19-12.1,33.9
		H2380.7z"/>
	<path class="st0" d="M2460.1,155.1h38.8v20.4h0.7c12.7-15.2,29.4-22.8,50.1-22.8c15.5,0.2,28.9,5.2,40.4,14.8l-28.2,33.6
		c-8.2-6.4-16.6-9.6-25.4-9.6c-9.9,0-18.4,3.2-25.4,9.6c-7.9,6.3-12,16.5-12.2,30.6v115.9h-38.8V155.1z"/>
	<path class="st0" d="M2742.7,316.5c-8.4,9.6-18.3,17.5-29.7,23.6c-11.4,6.3-24.5,9.6-39.5,9.8c-22.8,0-42.7-7.7-59.9-23.2
		c-17.8-15.5-27-40.5-27.5-75.1c0.5-35,9.6-60.3,27.5-76c17.2-15.5,37.2-23.1,59.9-22.8c15,0.2,28.1,3.3,39.5,9.3
		c11.4,6.1,21.3,14.2,29.7,24.3l-28.6,25.4c-9.8-13-22.8-19.7-39.1-20.2c-32.9-0.5-49.6,19.5-50.1,60.1
		c0.5,40.3,17.2,60.2,50.1,59.5c16.3-0.2,29.4-6.9,39.1-20L2742.7,316.5z"/>
	<path class="st0" d="M2798.9,266c0,15.5,4.5,27.2,13.4,35.2c8.3,8.2,19.2,12.2,32.6,12.2c15.7,0,29.7-6.2,42.1-18.7l28,23.9
		c-19.7,21-42.8,31.4-69.4,31.2c-10.1,0-20-1.5-29.7-4.5c-4.8-1.6-9.5-3.8-14.1-6.5c-4.8-2.3-9.3-5.3-13.5-8.7
		c-8.2-7.2-14.8-17.2-19.8-30c-5.6-12.4-8.3-28.4-8.3-48.2c0-19,2.4-34.9,7.2-47.5c4.8-12.9,11-23,18.5-30.4
		c7.7-7.5,16.3-13,25.8-16.3c9.4-3.3,18.7-5,27.8-5c22,0.2,40.6,7.5,55.8,21.7c15.5,14.5,23.3,34.4,23.6,59.7V266H2798.9z
		 M2880.2,234.1c-0.5-15-4.5-26.3-12.1-33.9c-7.4-7.3-16.9-10.9-28.6-10.9c-11.6,0-21.1,3.6-28.6,10.9c-7.3,7.7-11.3,19-12.1,33.9
		H2880.2z"/>
	<path class="st0" d="M1136.7,764.7c35.1-0.5,52.9-13,53.4-37.7c0.2-20.2-11.5-32.3-35.2-36.4c-10.9-1.5-22.8-3.2-35.8-5
		c-23.2-3.8-40.9-12.4-53-25.8c-12.5-13.7-18.7-30.4-18.7-50.1c0-23.6,7.9-42.7,23.6-57.1c15.2-14.3,36.8-21.6,64.7-21.9
		c33.6,0.7,62.9,10.1,87.7,28l-22.8,33.8c-20.3-13.4-42.6-20.3-67-20.8c-12.6,0-23.1,3.2-31.5,9.5c-8.8,6.6-13.3,16.3-13.5,29.3
		c0,7.8,3,14.8,9.1,21.1c6.1,6.4,15.8,10.9,29.1,13.4c7.4,1.2,17.6,2.7,30.4,4.3c25.3,3.5,44.1,12.6,56.2,27.3
		c12,14.5,18,31.3,18,50.4c-1.4,51.7-33,77.9-95,78.6c-40.1,0-74.5-12.4-103.3-37.1l26.9-30.8C1081.4,755.5,1107,764.4,1136.7,764.7
		z"/>
	<path class="st0" d="M1273.2,552.3h38.8v58.6h28.2v29.5H1312v112.2c-0.3,9.8,4.3,14.5,13.7,14.3h14.5v36.5H1320
		c-13.6,0-24.7-4.2-33.4-12.6c-8.9-8-13.4-19.7-13.4-34.9V640.4h-19.3v-29.5h19.3V552.3z"/>
	<path class="st0" d="M1477.6,786.4h-0.7c-3.6,6.6-9.2,11.4-16.7,14.5c-7.4,3.2-17.7,4.8-30.8,4.8c-21.5-0.3-38.1-5.9-49.7-17.1
		c-12.2-10.9-18.4-24.8-18.4-41.7c0-16.2,5.3-29.6,16-40.2c10.6-10.9,26.2-16.4,46.7-16.7h53.6v-20.2c0.2-16.9-12.9-25.2-39.5-24.7
		c-9.6,0-17.2,1-22.8,3c-5.8,2.3-10.4,6.3-13.7,11.9l-30.4-23.2c14.7-19.3,36.4-28.7,65.1-28.2c24.2-0.2,43.6,4.3,58.1,13.7
		c14.5,9.6,21.8,26.2,22.1,49.7v131.5h-38.8V786.4z M1477.6,721.8h-46.4c-22.5,0.5-33.6,8.2-33.4,23.2c0,6.6,2.9,12.1,8.7,16.7
		c5.6,5.1,14.8,7.6,27.6,7.6c16.2,0.3,27.6-1.7,34.3-5.7c6.1-4.1,9.1-13.4,9.1-27.8V721.8z"/>
	<path class="st0" d="M1566.4,610.9h38.8v20.4h0.7c12.7-15.2,29.4-22.8,50.1-22.8c15.5,0.2,28.9,5.2,40.4,14.8l-28.2,33.6
		c-8.2-6.4-16.6-9.6-25.4-9.6c-9.9,0-18.4,3.2-25.4,9.6c-7.9,6.3-12,16.5-12.2,30.6v115.9h-38.8V610.9z"/>
</g>
</svg>
